<svg version="1.1" id="Layer_1" xmlns="http://www.w3.org/2000/svg" xmlns:xlink="http://www.w3.org/1999/xlink" x="0px" y="0px"
	 width="100%" viewBox="0 0 1255 1075" enable-background="new 0 0 1255 1075" xml:space="preserve">
<path fill="#FFFFFF" opacity="1.000000" stroke="none" 
	d="
M855.000000,1076.000000 
	C570.000000,1076.000000 285.500000,1076.000000 1.000000,1076.000000 
	C1.000000,717.666687 1.000000,359.333344 1.000000,1.000000 
	C419.333344,1.000000 837.666687,1.000000 1256.000000,1.000000 
	C1256.000000,359.333344 1256.000000,717.666687 1256.000000,1076.000000 
	C1122.500000,1076.000000 989.000000,1076.000000 855.000000,1076.000000 
M784.755920,825.000732 
	C800.771667,824.334045 816.786560,823.647095 832.803406,823.008301 
	C842.226990,822.632446 851.656006,822.385559 861.078125,821.978516 
	C866.175537,821.758301 871.280518,821.484375 876.352966,820.955627 
	C891.485168,819.377991 906.657898,818.044006 921.708740,815.878052 
	C933.395996,814.196106 945.300598,812.555969 956.452393,808.897339 
	C989.746094,797.974426 1012.073059,775.308167 1022.924194,742.004028 
	C1029.900146,720.593201 1032.283691,698.182312 1034.919312,675.920105 
	C1036.673462,661.101990 1037.841675,646.206299 1038.931519,631.320374 
	C1039.870972,618.488464 1040.472046,605.626709 1040.960449,592.768188 
	C1041.470215,579.350037 1041.963501,565.919128 1041.928345,552.495239 
	C1041.879272,533.737000 1041.386108,514.978943 1040.968506,496.223328 
	C1040.840088,490.459534 1040.287964,484.706360 1040.014404,478.944305 
	C1039.317627,464.261139 1038.692505,449.574493 1037.987427,434.891724 
	C1037.726807,429.462616 1037.550659,424.014587 1036.939697,418.620056 
	C1035.414307,405.151306 1033.916382,391.670410 1031.923706,378.266327 
	C1030.181396,366.546722 1028.397339,354.771240 1025.535889,343.293640 
	C1020.304260,322.309357 1010.262756,303.997437 993.914368,289.269348 
	C981.434326,278.026215 967.258118,270.278259 951.128601,266.026062 
	C927.652893,259.837280 903.455078,258.589600 879.465027,256.118652 
	C863.751038,254.500122 847.928040,253.885925 832.142395,253.033554 
	C816.965942,252.214035 801.776428,251.624268 786.589417,251.015060 
	C776.333923,250.603668 766.074097,250.283524 755.813782,250.012405 
	C741.390259,249.631271 726.963501,249.008682 712.540039,249.056808 
	C653.454468,249.254028 594.369202,249.619339 535.284607,250.034775 
	C521.358154,250.132690 507.431976,250.579041 493.510651,251.021423 
	C475.323517,251.599380 457.138336,252.260696 438.958099,253.023956 
	C426.101227,253.563705 413.246185,254.211044 400.404510,255.031891 
	C387.118591,255.881134 373.815582,256.675964 360.582397,258.081604 
	C345.175781,259.718109 329.782532,261.648712 314.481567,264.071289 
	C292.963470,267.478210 274.359772,277.296539 259.082947,292.621674 
	C244.001007,307.751282 233.373444,325.678070 229.968506,347.186157 
	C226.532928,368.887970 222.963760,390.578583 220.134262,412.362579 
	C218.421722,425.547302 217.793427,438.888580 217.057999,452.180542 
	C216.163208,468.352539 215.157501,484.545258 215.113388,500.731506 
	C215.037292,528.653259 215.505554,556.580139 216.065399,584.498413 
	C216.360031,599.190552 217.177963,613.878296 218.043671,628.551208 
	C218.827698,641.839905 219.676514,655.140015 221.081131,668.373047 
	C222.716690,683.781616 224.991165,699.122253 226.981857,714.493286 
	C229.889053,736.940857 236.869568,757.612366 251.642258,775.384888 
	C263.948242,790.189758 278.639984,801.394104 296.692017,807.964844 
	C316.625641,815.220459 337.722107,816.370117 358.513885,818.920654 
	C370.236877,820.358643 382.049194,821.120605 393.837555,821.958618 
	C405.511169,822.788452 417.200684,823.427307 428.891388,823.976196 
	C445.071594,824.735901 461.257812,825.375732 477.444550,825.985046 
	C488.366821,826.396240 499.292908,826.733582 510.220001,826.984131 
	C527.309692,827.376038 544.402710,827.993042 561.492554,827.940308 
	C618.411865,827.764709 675.330750,827.384216 732.248962,826.966736 
	C747.841797,826.852356 763.432373,826.358826 779.021973,825.960632 
	C780.622620,825.919800 782.209473,825.337646 784.755920,825.000732 
z"/>
<path fill="#FF0033" opacity="1.000000" stroke="none" 
	d="
M784.279297,825.003662 
	C782.209473,825.337646 780.622620,825.919800 779.021973,825.960632 
	C763.432373,826.358826 747.841797,826.852356 732.248962,826.966736 
	C675.330750,827.384216 618.411865,827.764709 561.492554,827.940308 
	C544.402710,827.993042 527.309692,827.376038 510.220001,826.984131 
	C499.292908,826.733582 488.366821,826.396240 477.444550,825.985046 
	C461.257812,825.375732 445.071594,824.735901 428.891388,823.976196 
	C417.200684,823.427307 405.511169,822.788452 393.837555,821.958618 
	C382.049194,821.120605 370.236877,820.358643 358.513885,818.920654 
	C337.722107,816.370117 316.625641,815.220459 296.692017,807.964844 
	C278.639984,801.394104 263.948242,790.189758 251.642258,775.384888 
	C236.869568,757.612366 229.889053,736.940857 226.981857,714.493286 
	C224.991165,699.122253 222.716690,683.781616 221.081131,668.373047 
	C219.676514,655.140015 218.827698,641.839905 218.043671,628.551208 
	C217.177963,613.878296 216.360031,599.190552 216.065399,584.498413 
	C215.505554,556.580139 215.037292,528.653259 215.113388,500.731506 
	C215.157501,484.545258 216.163208,468.352539 217.057999,452.180542 
	C217.793427,438.888580 218.421722,425.547302 220.134262,412.362579 
	C222.963760,390.578583 226.532928,368.887970 229.968506,347.186157 
	C233.373444,325.678070 244.001007,307.751282 259.082947,292.621674 
	C274.359772,277.296539 292.963470,267.478210 314.481567,264.071289 
	C329.782532,261.648712 345.175781,259.718109 360.582397,258.081604 
	C373.815582,256.675964 387.118591,255.881134 400.404510,255.031891 
	C413.246185,254.211044 426.101227,253.563705 438.958099,253.023956 
	C457.138336,252.260696 475.323517,251.599380 493.510651,251.021423 
	C507.431976,250.579041 521.358154,250.132690 535.284607,250.034775 
	C594.369202,249.619339 653.454468,249.254028 712.540039,249.056808 
	C726.963501,249.008682 741.390259,249.631271 755.813782,250.012405 
	C766.074097,250.283524 776.333923,250.603668 786.589417,251.015060 
	C801.776428,251.624268 816.965942,252.214035 832.142395,253.033554 
	C847.928040,253.885925 863.751038,254.500122 879.465027,256.118652 
	C903.455078,258.589600 927.652893,259.837280 951.128601,266.026062 
	C967.258118,270.278259 981.434326,278.026215 993.914368,289.269348 
	C1010.262756,303.997437 1020.304260,322.309357 1025.535889,343.293640 
	C1028.397339,354.771240 1030.181396,366.546722 1031.923706,378.266327 
	C1033.916382,391.670410 1035.414307,405.151306 1036.939697,418.620056 
	C1037.550659,424.014587 1037.726807,429.462616 1037.987427,434.891724 
	C1038.692505,449.574493 1039.317627,464.261139 1040.014404,478.944305 
	C1040.287964,484.706360 1040.840088,490.459534 1040.968506,496.223328 
	C1041.386108,514.978943 1041.879272,533.737000 1041.928345,552.495239 
	C1041.963501,565.919128 1041.470215,579.350037 1040.960449,592.768188 
	C1040.472046,605.626709 1039.870972,618.488464 1038.931519,631.320374 
	C1037.841675,646.206299 1036.673462,661.101990 1034.919312,675.920105 
	C1032.283691,698.182312 1029.900146,720.593201 1022.924194,742.004028 
	C1012.073059,775.308167 989.746094,797.974426 956.452393,808.897339 
	C945.300598,812.555969 933.395996,814.196106 921.708740,815.878052 
	C906.657898,818.044006 891.485168,819.377991 876.352966,820.955627 
	C871.280518,821.484375 866.175537,821.758301 861.078125,821.978516 
	C851.656006,822.385559 842.226990,822.632446 832.803406,823.008301 
	C816.786560,823.647095 800.771667,824.334045 784.279297,825.003662 
M644.699402,605.240723 
	C682.938721,583.048889 721.177979,560.857056 760.473999,538.051941 
	C688.366455,496.407959 617.508545,455.485687 546.253052,414.333771 
	C546.253052,497.358032 546.253052,579.593811 546.253052,662.355957 
	C563.678162,652.271851 580.566040,642.508850 597.443726,632.728333 
	C612.997375,623.715149 628.540100,614.683105 644.699402,605.240723 
z"/>
<path fill="#FFFFFF" opacity="1.000000" stroke="none" 
	d="
M644.393555,605.450073 
	C628.540100,614.683105 612.997375,623.715149 597.443726,632.728333 
	C580.566040,642.508850 563.678162,652.271851 546.253052,662.355957 
	C546.253052,579.593811 546.253052,497.358032 546.253052,414.333771 
	C617.508545,455.485687 688.366455,496.407959 760.473999,538.051941 
	C721.177979,560.857056 682.938721,583.048889 644.393555,605.450073 
z"/>
</svg>